<mxfile host="65bd71144e">
    <diagram id="WK1w1qcAZTVM7tpZqh_E" name="SKETCH 0">
        <mxGraphModel dx="1284" dy="572" grid="1" gridSize="10" guides="1" tooltips="1" connect="1" arrows="1" fold="1" page="1" pageScale="1" pageWidth="583" pageHeight="827" math="0" shadow="0">
            <root>
                <mxCell id="0"/>
                <mxCell id="1" parent="0"/>
                <mxCell id="qIELvDiDjfZ-gghSUCmd-1" value="" style="rounded=1;whiteSpace=wrap;html=1;fillColor=#f5f5f5;fontColor=#333333;strokeColor=#666666;arcSize=3;" parent="1" vertex="1">
                    <mxGeometry x="136" y="65" width="390" height="185" as="geometry"/>
                </mxCell>
                <mxCell id="iep4t2-mu8DKBwMXg1oC-1" value="Ruang&#10;Simulasi" style="shape=image;verticalLabelPosition=bottom;labelBackgroundColor=default;verticalAlign=top;aspect=fixed;imageAspect=0;image=data:image/png,iVBORw0KGgoAAAANSUhEUgAAAQAAAAEACAYAAABccqhmAAAACXBIWXMAAAdhAAAHYQGVw7i2AAAAGXRFWHRTb2Z0d2FyZQB3d3cuaW5rc2NhcGUub3Jnm+48GgAAIABJREFUeJztnXl0ZFd957/3vdpLJVVpl3rvlntvvLRhsMdb2w5gzAAOtgNxDPYQepgwIZnJsDiZQJ+TnATOhBkOZDjEOZ4QGJMZb+AAMYMXGGxjbNxtd7vd7V7Um1ottdTaSiqp1vfmj6aKklol1XLvu/e+9/uc43Naqlf3/Vyq9333/n7f330AQRAEQRAEQRAEQRBegMkOgHCev+u3W4I+63dsht32nie3Y03bc/melj/evfuKo7JjI5yFBMBDfOt0dqdlGLuZjXsARAHA/tTDF1/0mbDXtp1lK+Jfv3/mnX/D9jBLYqiEQ5AAuJyHzti9hm3dC2Z/AsCGha+XBKAM1hIuYG3Hr6yO2Gc+/kdXv+BEnIQcSABcyCO2bc6cye9iBtvNbNxhA75Kxy4mACUYA1a3jmNl6z82xVq+cPents2IiJeQBwmAi3ho0N5kWPn7YbP7AHRV854lBaCccMDGuva3WE/ii/f/8dWP1h8loRIkAJrzyIAdTlmF9zGG3TZwC2r8m1YtAOXv6WmZZWvan/C3hz5777+7eqjmAQhlIAHQlFJCz8JHwBCrd5x6BKCE34S9hhKHOkMCoBEPn7YTOVh32Qx/ANiX8xizIQEog7U1Ze117c9a8fhnf/+PLj/IZVBCOCQAirPHto3VZ/I3M4Ptho0PAAjwHJ+XAJQwGLDqYuLwTFfPn+65f12a7wkInpAAKMrfn7VX+grWPWD2JwGsFXUe7gJQTixosfVdrxg9sT/92Keu/qm4ExH1QgKgEF87ZgdjgcL7603o1YNQASg/z68Th77W2J989N9fPuLISYllIQFQgG+dzmyzDeNeZrOP20C7k+d2SgCKsFDAtte3v2V2xv7qY3/yzv/l6MmJSyABkES5Hx+wd8qKw2kBmEdHLEN9CHIhAXCYxfz4MpEqAEWoD0EaJAAOsJwfXyZKCEAZ1IfgLCQAgqjFjy8T1QSgBPUhOAIJAGfq8ePLRFkBKIf6EIRBAsCBRv34MtFCAMqgPgS+aPNFVRFefnyZ6CYAJagPgQskADUiwo8vE20FoAzqQ6gfEoAqEO3Hl4kbBKAE9SHUDAnAEjjlx5eJqwSgHOpDqAoSgAXI8OPLxLUCUAb1IVTG1V/uWpDpx5eJFwSgCPUhXIqnBUAVP75MvCQA86A+BAAeFQDV/Pgy8awAFPF4H4JnBEBlP75MPC8AZXixD8HVAqCLH18mJACL4KE+BFcKgG5+fJmQACyDy/sQXCMAOvvxZUICUD1u7EPQ/iJxgx9fJiQAdeCiPgQtBcBtfnyZkAA0hu59CNoIgKp+/IA1jayh78SDBIATmvYhKC8Aqvvx+2Z+gC3Jf8Kp6Ltwouk9SJndskOqCRIAAWjUh6CkAOjkx4/nTuD2oXsBABZ8ONF0O/a3fAJpMyE5suogARCL6n0ISl1YOvrxmW3hwwO7YCBf+l3WiOH1+CdxrOmDEiOrDhIAZ1C1D0G6ALjBj//bgx9AuHDhkt+fir4LL7d+DnkWkhBVdagqAJZtIZPJIJvNIJfPoVAowLIvJtsNZsA0Tfh9AQQCAYSCITAm/atcPQr1IUj71Nzkx799+KOIZ/sXfW08sBHPdX4VGaPF4aiqQzUByBfySKVmMJeeg23bVb2HMYZQKIKmaBN8pik4Qo4o0IfgqAC41Y9/2/D9aM1WFvKxwBY82/l15Iywg1FVhyoCYNs2plPTSKVSAKq78C+BAdFwE2KxGJj8yW1NyOpDEP4pecGP//6hDyOWG1jymKHQO/Czzv8KS7H/fRUEIF8oYGJyHPl8jst4Ab8fiZZWGDrNBoo43IcgTAC848e3cffZd8FvzS575IGWT+CNlvvEh1QDsgUgn8thbHIMlsV39msYJloTrfD7/FzHdRQH+hC4CoAX/fiRwgjuGLyjqmMt+PFUz//EpH+94KiqR6YA5AsFjI2Pcr/4ixiGiY62DhiGIWR8JxHVh8DlAvWyH3/l3PO4cfTzVR8/GtiOn3T/ncCIakOWANiwcWHsArdpfyX8Pj/aWtv1qhIsBec+hLo/FfLjX+Tq8a9i00xts7Onu/4HRoJXCIqoNmQJQHImiVTKmTb7pmgMsSb33Zd49CHUJACq+vHlYeODg3chWqhtRnY2fD3+X8eXBMVUGzIEIF/IY/TCKOrO9tcIYwY62ztdsRRYlAb6EKoSANX9+LLoSu/DrSN/WPP7bBj4fu9jmPXJz43KEICp5CRm55ZPmvIkEomgJRZ39JxSqLEPoWJNap4f3yrcol1h1QE2T//vut7HYKEn8yr6fbdzjkh9LNvCXHrO8fPOzc2huanFPbmASkxnDHv/mXcW9uO5h3Z/f9k+hEs+DR39+DJoy76F9wz/Puqdxp6Kvgsvtn2Rb1B14PQMYC49h8mpCUfPWSTekkA4pJ4ZSzRL9SFcMgOwmXkQtlOrMz1hsHD1xFfQyKfUmdnPLyCNyGYzUs/tRQGw01mGQ+e2FA7hOwDmCYBLsyJi2Tz9CNozhxoaI5wfhWEXOEWkDznBZb+lEF1y1BESgBppzxzEFRPfbHgcBgtBa5JDRHpRKMgTPZnnVhUSgBpoyg/ihtEHYIDPnSRY8J4AVNvhJ4KCre3encIgAaiS5vwp/NbIpxG2xrmNaYDuSIRc1GpNU5TuzF5cN/rnCFpTXMfNMe8lpBhj0mYBJqP73UJIAJbAtHPYlvwWtie/DcZ9+siQNts4j6k+pmkKa/6p5tzEfEgAFsXGirkXsXPyb5ft86+XObMdOSMiZGyV8fsCyOXkZON9OrcGC4IEoIyANY3Vsz/DxpnHkMgeF3quscBmoeOrSiAQwOxcStK5g1LOqzKuF4CdE1/DrK8TY4HNmDPakPa1Is/C8FspBAuTaC4MIJE9hs70PnRmDsC0s47ENRzWcv/ThgkFg1LyAIwxhIIkAAtxvQBYzIerJr4uO4wFMJwNXyc7CCkwZiAUimDO4VlAOBQBoyTgJbj+EzkZebfsEC7hfOhKpMwe2WFIoyna5OheUYyxi+ckLsH1AjAZ2IDR4A7ZYczjrdiHZYcgFZ9pIhp27oKMRKJUAaiA6wUAAPbF/wNU2Z5wLLAZZ8PXyg5DOrFYDAG/+Ky83x9Ac7RZ+Hl0xRMCcCG4HWciu2SHARsGXk38J6giRjJhYEjE24TemQ3DQCKeoI97CTwhAADwauLTmDNapcbwVuxuXAhukxqDSly8QFthGPxFwDRNtCbaYQoY201IqQLMZPN4fmAcp6cu7gyzqjmEf70igXhY3BaDc2YHXmz/C9w8+mkpbbgXgtvxeuKTjp+3SMG2MZhM49TUHIZTacxmC5jLF4Df+1cIp/OIpHPoHp3GmrMTWDGchFlwxq3n9/nR0daBialxZLN8SrB+fwCt8Vb37gHIkUsmR/9wJi+0QDuTzeO7b55DJj//IgyZBj6yfQWaAmI1adP0Y7h64r8LPcdCpv2r8JPObyJtOr8nnW0D/ZMpvHhmAslsdQ68ptks3v76WWw9PgzHnlZn4+KjwWZn6vYIMMYQjUQRizbTtL8C//YHH5v3yTgukc8PjF9y8QNAumDh+TP8Ou0qcSR2J15p/Qxsh2rCSd9aPNPxVSkXfzpfwONvncNTx0eqvvgBYCYSwE+vXY8n3r0d6aBDk0QGxJpi6GzvQiQSqWnvPsYYIuEIOto6EWuii78WHF8CFKf9i3Fmidd4cqzpg8gYzbh27C9h2uK2qBoO7sQLHX8h5cnAs7kCnnhrCBPp+n33Q13NePy9O3DHUwcRaWCcWjAMAy2xOJqbmpEuPR48D6uQh/XrmYHBGAzTB7/Pj2AgiGAwQCafOnFcAHJLrC2zDnaJnYncjAl/H64Z/yt0ZN7gOnaB+fFm83042PxRx2Ya5dg28PTJ0YYu/iITLWH835s24oM/PgTm4E6RjBkIh8Ke3MPPSTwtm9P+1Xi66xt4NfEfMWfy2ACZYTB8HX7U/R280XKflIsfAN68MM11NjXY3YJDG+U/w4Dgj+t7AZbDhoEjsTtxLPYBrEk9g83Tj6A1e7SmMbJGDGciN+Fo052YCPQJirQ6bBvYN8x34xIA2LujF1uPnQeTuKUXwR/PC0ARC36cjN6Gk9HbEC5cQHd6L7rSexHLDyBkTSGUH4PfnkXOiCJjxpE0V2EicBlGQldhJPg2FJgaT0k7k5zDlID1ejIWwpneONYMytnTnxCDEAEor/MvteZfjK//6uS8n/2m4YhPoJw5sx0no+/Gyah6jUTLMZAUl0g929NCAuAyuAtApTp/veQKFk5MzOJcMu2IT0B3hmeqfi5kzQx1uu8Ju16He5aqUp2/UZzyCejOdFacyzEVVWOZQ/CDuwAsVedvFKd8AjqTFiC+ReZCtKee29CrDEgOr2XJW+Ky9HlTr68LsTzc/6Krm0O8hyyxpoVMIQTBE+4CcO2KBII+/i2YQZ+J61bJbeclCLfBXQDi4QB+d1sv+hJRBDi0YwYMAxsSUdy9pYcqAATBGSFXVFPAh9v6Ohd9bWGdfyF/+PZ1IkIiiKoYHRtFOBRGJBwWslGJatAtlSDKyOdzmJ7JYXomiWAwiHAoglAwVFN7sk6QABBEBTKZDDKZDAxmIBQKIRyOIOB3lxeCBIAglsGyLczOzWJ2bhY+n99VSwTHBcBvGhX7AwJUZ24Yn8GEeQH8eTlP9VUJty0RHL/ilvIJUJ2/ccJ+cXelkEO7AulCJpPB5NQERkbPYyo5iWzOmedK8sRxAajkE6A6Px+aBApAdFa/L7gTFJcIY+MXMDo2ipnUDCzL+Z2n68FxAVjoE6A6P196YuJmUb0jSWFju4WLS4Qkzo+ex/jkGObSc44/CbkWpFxxS/kEiMZYFQth35CYsVcO8d9pyM3oUEWgW67LWNUcRjzkxyTn9XrzdBqrzpEA1IPKVQRKu7sMxoCd3fy3Ib/6jUHaD5ADqi0RaAbgQrZ0xNA/MYtTU7Ncxls9OIktR0e4jEX8BhWWCDQDcCEMwC3r2rnsoRhPpnHr88ccfSaA1yivIjgNCYBLifhN3L25Gyti9e/P0Hs+ibt+dMCxpwIRzkNLABcT9Jm4Y1MP+idT+MXABKYyVT4cNJXF2/c7/HBQQgokAC6HMaAvEcW6eATnptM4NTmH86k0ZnMWUrk8kM0jks4jMpu9+HjwwQn0np927PHghFxIADTFBvDSwAT2Dk82NpDPRLLJRLIpiOHOGF7f1lvT2992aAjXv3KKcgSaQgKgIQXbxjMnL+Do2IzsUHBgaw9S0SB+6+dH4aNZg3ZQElAzMgULTx4ZVuLiL9K/phXff/c2pIN0P9ENEgCNSOXy+N5bQxicFvf0n3oZ7ozhiffuwHQ0KDsUogZIADRhbC6HRw8PYVThjrzxljAefd/bMNoWlR0KUSUkABowmEzj8cPnMJ3Jyw5lWWbDfjzxnu0Y6I3LDoWoAhIAxemfSOHJY8PIaJRgy/lN/PDWLTi6rl12KMQykAAozP7zU3iqfwQFgY/7EkXBYHj6ho145YpVskMhlkCrtG1q+GkADNHuW2WHIhRuNX7J2Ax45YpVSAd85BVQFG0EwCqkMXLgiwCAtZ3XgxnuzDarVOPnBXkF1EWbJcDEsW8glzqNXOo0xo/8rexwhKBijZ8X5BVQEy0EYOFFXxQDN6FyjZ8X5BVQDy0EYOTAF2BbmdLP5csBN6BDjZ8X5BVQC+UFIDX8NFLDz1T9e93QqcbPC/IKqIPSArDcnX7hzEA3dKzx84K8AmqgtAAst9bXOSGoc42fF+QVkI+yAlDtxa1bQtAG8IuBCfz8zDhok93feAV+/o51sKHn8/V0RlkBqHZ6r1NCsGDb+MmJUe0NPiI4sLUHP961CXl6QKyjKPlp15rg0yEh6OYaPy/IK+A8yglAvXd0lROCXqjx84K8As6inADUu6ZXNSEoqsbPGHDDGvlPU971ixPcdw4mr4BzKCUAjV7EqiUERdX4/aaB2/u6cHkn/0eA1cq2o8P4N88eQiDL93HY5BVwBqUEoNFpvEoJQVE1/qjfh9/e3IN18QjXcRth9eAkPvTUQcRSfJdg5BUQjzICwCuRp0JCUFSNvz3ix11betAZUesR0wDQNpHCnT96A50X+CY5ySsgFiUEgPedW1ZCUGSNf3VLGB/a3IuYwhny6GwWd/z4INYNjHMdl7wC4lBCAHiv3WUkBEXW+Ld3xPD+y7oQ0KBG7s9beO9zR7DzjUHuY5NXgD/SP0lRF6uTCUFRNf5ipn/X2nYwps+dj9k2rtl7WkiFgLwCfJEuAKKm604lBEXV+FXK9NeLqAoBeQX4IVUARCfsRI8vqsavYqa/XkRVCER5BdrbOtEUbYJhmFzHVRVpAuDUHVrUDENUjV/lTH+9iKoQiPAK+H0+xJqa0dXRhdZ4G8KhsFbLr1qRJgBOrdFF5BhE1fh1yPTXi6gKgUivQDAYRLwlgc6OLrQ0xxEIuEeUi0gRAKez9DzFRlSNX6dMf72IqhCI9goYzEAkHEFbot11SwQp3zan6/Q8lxvnpjNca/y6ZvrrRVSFwGbAeDzMb8AKuG2J4LgAyHLq8TrvrrVtCPv4qL8bMv31wrtCEErnccMvT3IZq1rcsERwVABke/V5zDxCPhM3c1hvuinTXy88KwQ3/bIfkXSOQ1S1o/MSwVEBkN2txyv3sD4eQV+i/vKTGzP99cKjQtB36gL6To1xjKp+dFsiOCYAqvTr8xKhepcCbs7010sjFQIZU/9q0WGJ4JgAqLJjD69lSD1LAS9k+uul3gqBzKl/tai8RHDkm6hCi245vOKpdingtUx/vdRaIVBp6l8tqi0RhAuA7MRfJXjNSJZbCng5018v1VQIVJ76V0tpidDeheZYC/w+v+MxCBcA2Ym/SvDKSSy1FKBMf/0sVyHQYepfLYZhIBqJor2tw/lzixxclcRfJXiJ02JLAcr0N06lCoGOU39VESoAqiT+KsFzeVK+FKBMPz8WVgjcMPVXCWHfUNUSf5UoxhntvrWhcUI+EzetbcO56TSuX9UGyvXxo1gheOEda9FzPumaqb8KCBEAVRN/lRg58AWs7bwezGhsg4m+RLQhgxBRGWbbuP5luvPzRsgSQNXEXyVUz1UQhCi4C4CuF5NuokUQPOAuAKon/iqh27KFIHjAPQew4pp/rPrY2dGXcPaFO3mHMI+V1z2GSMc1Qs8hi0y+sVbaoM8EUhlkGqhWZII+BDlvi0Y4h1RT+viRr7jiHLKYTDd24cVDPrQkG9vNeKo51ND7CblIE4DZ0ZcwO/qSa84jg8kGy2HxkB/x5FxjMTSL34WHEIc0AXDyzuzWWcBktsEZQMCHeIPPM5iM0QxAZ6QIgNN3ZbfOAqYanAG0hPy0BPA4UgRAxh3ZjbMAWgIQjeK4AMi6G7txFjDZYPY9HqQlgNdxXABk3ondNAvI5AsNlQGDPvPif5l8Q2W8TNDXUBmRkIujfznZd+Hi+d3gC+BRAizSkkxjpKOp7rGmmkPoHOX72C+e+P1+dK/oRlPs4v9jajqF80PDyGT4PtNRRxydAahwB1YhBh7wWP+X/u3iPIDf78eGjRvQ3NIMwzBgGAZiLTGsv2w9/H7nd+BRDccEQPbdX7U4GoVHCbD0bxfnAbpXdMNcZMs2wzTRvaJbQkRq4ZgAqHTnVSmWeuFRAiz928WlwOK0f9HXmupf9rgFRwRAtbuuavHUAy0BqsMwKn/FDdqe3RkBUPGOq2JMtcCjBFj6t4uXAMTSCBcAVe+2qsZVDbxKgKWfqRToWYQLgMp3WpVjWwqeJcAibs4DEJURKtuq32V19QXwXP+Xfpeca8gLMNkcluYFKK/zL7XmX4xtl2+b97NlWZ7yCQidAehwh9UhxoXwLAGWfqdpHmBhnb9RvOYTECYAqt/9i+gSZzk8S4Cl32m6BKhU528Ur/gEhAmATndWnWIFxC0BGkFWKXCpOn/DY3vAJyBEAHS7q+oWL88SYOl3mi4BRGIzW3YIwhEiALrdUQF9YuZdAiz9XtNSYGo6JWzsmaS6DU684C4Aut1Ni+gSt4gSYBEd8wDnh4ZhFRrbHXkxCoUCzg8Ncx9XNbgLgC530sXQIXYR6//SaxrmATKZLI4f6UdyKgmrYDU8nlWwMDU5hf6jx5FrsNqiA9znbCuve4zreIc+tPQz07c+Psr1fKojogRYek3TPEAul8PAqYFFX1tY51/Im/vfFBGSNlA3hGaIKAGWXtNwCUA0BgmAZtASgOAJCYBmiCgBll7TdAlA1A8JgEaIKgGWXte0FLgUllU5MViw+FcPdIMEQCNElgCLuC0PsJRPwAt1/uUgAdAIkev/0jEuywNU8gl4pc6/HCQAGiGyBFg6xmV5gIU+Aa/V+Zfjkm/EVx59qn/L2u6zN+7YuiMaCrbKCIpYHJElwNIxLlsCAEv7BLwACwXswur4+dTQ6CXTu0sEoGAVNhw8Mbjh4InBTCIWfenGt20JXray+0oGMGfCJSpBSwCiFuyelnQu4huYfO1Ib+H0qUV7m5eaEwYnplPXfP/FV8EMNrS+s+PoLVdt3RCPNa0UFC+xDCJLgKVjXLYE8ByxoFXobRmc6h8wM68f7gVw2VKHV1WzsS27p394pKf/X0asSCi479qtl2Uu37B6p2kYAS5BE8siugRYOu7XpcB6y3nFUmAj5USiRgwGrEhMp43C0MTeo+txvLCq2rfW+lc2ZtOZq57ZdxDPvnZwsicef/mWndu6etoSG2sch6gRJ0qARdz+rEDX0BbNFdoiA+MHT7bkXx1sAxCrdYi6XRu2jfi5icnrv/PMi/D7fIev2rj2wjs39V0ZDPjcv42KBJxY/5eO1XiDUNfjN2Gvah2bnU2NJw8c64ON9Y0Mx8W2lcvnt7x86DhePnQ8TYlDMThRAiwdS3kA5Sgm9CZeP9JrnR1oA9DGY1zevs1QMXHoM4yTm9f2nLlxx5at0VBo6Z5eYlmcKAGWjnVhKVBLwgHbWhU/P3VuJJN+/fAaLJPQqwdhxu28Za07eGJw3cETg4Vi4vDKvjVvZ4ypZRbXBKeXAI1ApcAGYAxYeTGhN/XasbXWqcXLd7xw4mI0i4nD5/a9ObKuu+Pwriu3rGttjq124NyuwYkSYOlYWgI4DmsJF/LdsXOTR077s68OdqOOhF49OHo3tmB39g+PdPY/NVJKHF67deNVftOIOhmHbjhVAiwdT6VAZ/CZsFcXE3rH+3AUVZfvuIXg9AmLFBOHrxzuT/bEW56/6apt7SvbE1tkxaMyTpYAi1ApUBysvSmbbw2fHXvjeKLwEr+EXj1IX4/btt18bmLy+u8++yJMw6Q+hEVwcv1feg+VArlS7sefefPoOqCx8h0vpAtAOYv1IYCxq2C7/wENS+FkCbD0HsoDcKEaP75MlBKAMkp9CKH3fQUrT7+E1cd/isjsBdlxScHJEmDpPVQKrJ8a/fgyUVUASqTDCRzf/F70b7oNbSOHsab/Z+g69xoMyzsJJllLgEbwXCmwAT++TJQXgCI2Y7jQtRUXurbCn0uh98yrWNP/rOywHMHJEmDpPbQEqA4OfnyZaCMA5eT8UZzecCNOb7gRLz3+Y1f3IThdAiy9j0qBleHsx5eJlgJQjtv7EGSUAItQKXA+ovz4MtFeAMpwZR+CjPV/6b1UCnTEjy8TNwlACTf1IcgoAZbe69U8gMN+fJlod0HUiPZ9CDJKgKX3eqwUKMuPLxO3C0AJXfsQZC8BGkGLUqACfnyZeEYAytGpD0FGCbD0XhcvAVTy48vkkkz51i/98zbbtO4F8HEA7c6HJAev9iHYn3pYdgiOMc+Pf3xwnex4HGQKNv6PYeDBB15+YG/5CxVLZX1f+5dgIJ17v83s3QBuWepYl5FJxKL73FZOrIQXBGCeH38uq/SSjzN7wfBgYM738GcOfGbRhyRW9eXu+/LjK/2GeQ8YPgkba7mGqDBeeB6CawWg3I8/ONYrOxwHGQLwbatg/v2f7/1s/3IH13Z327PH2BK94mYw7IaNDwDwynMBrEgo+Lobn4fgKgFY6McvFLyS4yowhp9aNh7MRzLf2/OzPVUnjuqe3u746x8mcv7cXbCNP2CwL693HN1gDJM98fgbbnkegisEoNyPP5H0UjLvCIB/ALO+9Wcv/9n5egbgsr7d/Dff22lYxm6b2R+BB2qnRdzwPARtBWCeH/94H2x352rKSDPgBwUbD/6XX33+WQbW0GYZXD+0lf/tkXBzPvg+DyYO04lY9DUdE4e6CcA8P/6s9xJ6Pp/xT5978XPTvAYV9kXd9OUnNxmGfT9s3AeGLlHnUQ3d+hC0EIByP37/uTWyw3GQCdh41GTsG59/5fP7RZxA/J3qkUfMLacDu36dOLwD3jEfFSKh4H7V+xCUFYCFfvxc3jWJ12WwGMNzlo0H86nMk3ve3JMVeTJHp6qbvvxkr2HY9wL4BIANTp5bJgaYsn0IqgnAPD/++QnXNuEswlkADxsGvvnALx845dRJpa1VyxKH9wDwzFpOtT4EJQRgoR/fOwm9DAP+mVdCrx6kf9Drv/RIS8Dn/x1ms90AdsqOxykYY8meeMt+2X0IMgVgnh9/MpWQFojzHALw7VzB/9Cevf9Z6k630gWgHOpDcL4PwWkBID/+pX58mSglAEWoD8G5cqJTAkB+/Mp+fJkof2FRH4LYPgShAkB+/Kr8+DJRXgBKUB+CkD4E7gJAfvya/fgy0UcAyqA+BH59CNwEgPz4dfvxZaKlAJRDfQiN9SE0JADkx5dWvuOFa/5g1IdQX+KwHgEgPz5fP75MXHmRUB9C9X0IVQsA+fGF+fFl4koBKEF9CMv2ISwpAOTHd8SPLxN3C0AZ1IeweB/CYgJAfnxn/fgy8YwAlEN9CL/pQygJAPnxtU/o1YNX/siL4uU+hN5E/I0brtjSvvKbv1iTaw6eSu4/2plNznpmO3Qo5MeXiacFoByv9iH83qOHZYfgJEr68WWLglp5AAABZklEQVRCArAAr/UheEQAlPbjy8TVX+5G8UIfgosFQBs/vkxIAKrBxX0ILhMALf34MiEBqBG39SG4RAC09uPLhASgAdzQh6CxALjGjy8TEgAO6NyHoKEAuM6PLxNtvqi6oFsfgiYC4Go/vkxIAEShSR+CwgLgGT++TEgAHEDlPgQFBcBzfnyZkAA4jGp9CIoIgKf9+DIhAZCEKn0IkgWA/PiSIQFQAJl9CBIEgPz4CkECoBAy+hAcFADy4ysICYCiONWHIFgAyI+vOCQAqiO4D0GAAJAfXyNIADRCRB8CRwEgP76GkABoCq8+hAYFgPz4mkMCoDmN9iHUKQDkx3cJJAAuop4+hBoEgPz4LoQEwI3U0IewjACQH9/lkAC4nOX6ECoIAPnxPQIJgIdYrA+hTADIj+9BSAA8yI6//mEib+Z/Fwwfv+fRw2CMPWT47e8+8MIDE7JjIwiCIAiCIAiCIAiCIPjz/wFgJMj1z0NiAwAAAABJRU5ErkJggg==;" parent="1" vertex="1">
                    <mxGeometry x="450" y="138" width="60" height="60" as="geometry"/>
                </mxCell>
                <mxCell id="iep4t2-mu8DKBwMXg1oC-2" value="Monitoring&lt;br&gt;&amp;amp; Control" style="points=[[0.35,0,0],[0.98,0.51,0],[1,0.71,0],[0.67,1,0],[0,0.795,0],[0,0.65,0]];verticalLabelPosition=bottom;sketch=0;html=1;verticalAlign=top;aspect=fixed;align=center;pointerEvents=1;shape=mxgraph.cisco19.user;fillColor=#005073;strokeColor=none;fontSize=12;" parent="1" vertex="1">
                    <mxGeometry x="170" y="134" width="50" height="50" as="geometry"/>
                </mxCell>
                <mxCell id="MucZzkHqbFSXLsnGMauG-1" value="" style="group" parent="1" vertex="1" connectable="0">
                    <mxGeometry x="292" y="130" width="78" height="78" as="geometry"/>
                </mxCell>
                <mxCell id="MucZzkHqbFSXLsnGMauG-2" value="" style="sketch=0;outlineConnect=0;fontColor=#232F3E;gradientColor=none;fillColor=#3F8624;strokeColor=none;dashed=0;verticalLabelPosition=bottom;verticalAlign=top;align=center;html=1;fontSize=12;fontStyle=0;aspect=fixed;pointerEvents=1;shape=stencil(zZntjqMgFIavxp81cqgf/bnp7t6HaWlL1kqDdqt3v1o0K9idoZyTySaTjBzwgZfzVhAjvm8u5U1EkJTNTRzaiH+PAE6yE8fh/xC+mMh2a4p1eRUmIlU7lNuLrM9js/tVHmXbD5eNqBulTfOm1eqXeMhjO3FkfRFatqb2sWTzH1HybQiOf3x/UHU9DEequnnGfjr1J6XFWat7fbQq5upbOXa4qpirr+r3KLkz/fPcDKefimlcZJkJuR3bmMNdGw6zQR1M5Sze7tgU4wt6OnXI1u16cAbF7fLHI6pkvRBWxIyntjYviqsrj9NkZ0vLbVW5Iyh3xCwF8nen2RZlJ2sh8U1Njp6FRL6evb8T4aTJyVJAkixDvEFZmW9pNsdEnWOi3p6EHlby1nPwyWgq1YhPW9m/u/mZMqlm/P3JcxEsYP531AjvSSv1YbioSn0Wm+F6c6rKs0Ek5nY9dxCzSaju3UjzEOK2vvWFu7pN2clmo1Vbjg9Wq/mE9Rq2I54TE5IAAiMmBKiAgpgQoAIyYkKICrQfAO0HQPsB0H5gaD8wtB8Y2g8M7QeG9gND+4Gh/cDQflhvxv6XNcJ/efBe2WzptuyQFTahJgTsNVJqQsDmN6EmFGgVaAKgs0lAQGeTgIDOJgEBn000gaOzSUBAZ5OA4P2C/AVrxOLJ77FOzC9EiBWWADG/HCL2GgSIICEZNSJISEGNCBECeF8A3heA9wXgfQF4XwDeF4D3BeB9wfG+4HhfcLwvON4XL84Q/TBfcQI1H6t6LBuBR8LO+VvI0uscJFIg8AeJBIiQ7ZgjhAKBTyoFAp9UCgRBUgmOufFJpUDgk0qB8Erqx184+H6I/+OrI9+fZFW9uPV50+pL5jNqvso+A38A);" parent="MucZzkHqbFSXLsnGMauG-1" vertex="1">
                    <mxGeometry width="78" height="78" as="geometry"/>
                </mxCell>
                <mxCell id="MucZzkHqbFSXLsnGMauG-3" value="&lt;span style=&quot;font-size: 18px;&quot;&gt;&lt;b&gt;IoT&lt;/b&gt;&lt;/span&gt;" style="text;html=1;align=center;verticalAlign=middle;resizable=0;points=[];autosize=1;strokeColor=none;fillColor=none;" parent="MucZzkHqbFSXLsnGMauG-1" vertex="1">
                    <mxGeometry x="14" y="19" width="50" height="40" as="geometry"/>
                </mxCell>
                <mxCell id="MucZzkHqbFSXLsnGMauG-4" value="" style="endArrow=classic;startArrow=classic;html=1;fontSize=12;exitX=1;exitY=0.71;exitDx=0;exitDy=0;exitPerimeter=0;" parent="1" source="iep4t2-mu8DKBwMXg1oC-2" target="MucZzkHqbFSXLsnGMauG-2" edge="1">
                    <mxGeometry width="50" height="50" relative="1" as="geometry">
                        <mxPoint x="300" y="220" as="sourcePoint"/>
                        <mxPoint x="270" y="140" as="targetPoint"/>
                    </mxGeometry>
                </mxCell>
                <mxCell id="MucZzkHqbFSXLsnGMauG-5" value="" style="endArrow=classic;startArrow=classic;html=1;fontSize=12;entryX=0;entryY=0.5;entryDx=0;entryDy=0;" parent="1" source="MucZzkHqbFSXLsnGMauG-2" target="iep4t2-mu8DKBwMXg1oC-1" edge="1">
                    <mxGeometry width="50" height="50" relative="1" as="geometry">
                        <mxPoint x="390" y="130" as="sourcePoint"/>
                        <mxPoint x="302" y="179.17567567567573" as="targetPoint"/>
                    </mxGeometry>
                </mxCell>
                <mxCell id="MucZzkHqbFSXLsnGMauG-6" value="SKETCH 0 - Monitoring dan Control Ruang Simulasi Iklim dengan menggunakan Teknologi IoT" style="text;html=1;strokeColor=none;fillColor=none;align=center;verticalAlign=middle;whiteSpace=wrap;rounded=0;fontSize=12;" parent="1" vertex="1">
                    <mxGeometry x="191.5" y="80" width="279" height="30" as="geometry"/>
                </mxCell>
            </root>
        </mxGraphModel>
    </diagram>
</mxfile>